<svg width="38" height="38" viewBox="0 0 38 38" fill="none" xmlns="http://www.w3.org/2000/svg">
<path d="M18.9999 5C15.4382 5.00015 11.9927 6.25641 9.27995 8.544C6.56722 10.8316 4.76429 14.0012 4.19374 17.4858C3.62319 20.9704 4.32227 24.5424 6.16587 27.5629C8.00948 30.5833 10.8773 32.855 14.2562 33.9715C15.0062 34.1017 15.2875 33.6557 15.2875 33.2654C15.2875 32.9123 15.2687 31.7415 15.2687 30.4965C11.5 31.184 10.525 29.5859 10.225 28.7497C9.89211 27.9363 9.36442 27.2156 8.68751 26.6497C8.16251 26.3709 7.41252 25.6833 8.66874 25.6648C9.14842 25.7164 9.60848 25.8818 10.0099 26.1471C10.4114 26.4123 10.7424 26.7696 10.975 27.1886C11.1801 27.5539 11.456 27.8754 11.7868 28.1349C12.1175 28.3943 12.4967 28.5865 12.9025 28.7004C13.3084 28.8143 13.7329 28.8478 14.1518 28.7988C14.5707 28.7499 14.9757 28.6195 15.3437 28.4151C15.4086 27.6593 15.7485 26.9527 16.3 26.4267C12.9625 26.0551 9.475 24.7727 9.475 19.0863C9.45392 17.6087 10.004 16.1792 11.0125 15.0908C10.5539 13.8067 10.6076 12.3974 11.1625 11.1512C11.1625 11.1512 12.4187 10.7609 15.2875 12.675C17.7419 12.006 20.333 12.006 22.7874 12.675C25.6561 10.7423 26.9124 11.1512 26.9124 11.1512C27.4674 12.3974 27.521 13.8067 27.0624 15.0908C28.0739 16.1773 28.6245 17.6081 28.5999 19.0863C28.5999 24.7913 25.0936 26.0551 21.7562 26.4267C22.1141 26.7863 22.3898 27.2181 22.5645 27.6926C22.7392 28.1672 22.8089 28.6735 22.7687 29.1771C22.7687 31.1655 22.7499 32.7636 22.7499 33.2654C22.7499 33.6557 23.0311 34.1203 23.7811 33.9716C27.1541 32.846 30.0137 30.569 31.8495 27.547C33.6852 24.525 34.3777 20.9547 33.8031 17.4735C33.2286 13.9924 31.4246 10.8268 28.7131 8.54202C26.0015 6.25721 22.559 5.00184 18.9999 5V5Z" fill="#8C86D5"/>
</svg>
