<svg width="31" height="31" viewBox="0 0 31 31" fill="none" xmlns="http://www.w3.org/2000/svg">
<path d="M25.8333 5.16667H5.16659C3.74575 5.16667 2.58325 6.32917 2.58325 7.75001V23.25C2.58325 24.6708 3.74575 25.8333 5.16659 25.8333H25.8333C27.2541 25.8333 28.4166 24.6708 28.4166 23.25V7.75001C28.4166 6.32917 27.2541 5.16667 25.8333 5.16667ZM25.3166 10.6563L16.8691 15.9392C16.0295 16.4688 14.9703 16.4688 14.1308 15.9392L5.68325 10.6563C5.36034 10.4496 5.16659 10.1008 5.16659 9.72626C5.16659 8.86084 6.1095 8.34417 6.84575 8.79625L15.4999 14.2083L24.1541 8.79625C24.8903 8.34417 25.8333 8.86084 25.8333 9.72626C25.8333 10.1008 25.6395 10.4496 25.3166 10.6563Z" fill="#8C86D5"/>
</svg>
