<svg width="39" height="39" viewBox="0 0 39 39" fill="none" xmlns="http://www.w3.org/2000/svg">
<path d="M33.4331 11.5113C32.5525 11.9202 31.546 12.1718 30.6025 12.329C31.0742 12.2661 31.7347 11.4169 32.0178 11.1024C32.4267 10.5992 32.7726 10.0016 32.9613 9.37258C32.9928 9.30967 32.9928 9.24677 32.9613 9.21532C32.8984 9.18387 32.867 9.21532 32.8041 9.21532C31.7347 9.78145 30.6339 10.2218 29.4388 10.5048C29.3444 10.5363 29.2815 10.5048 29.2186 10.4419C29.1242 10.3161 29.0299 10.2218 28.9355 10.1274C28.4323 9.71855 27.8976 9.37258 27.3001 9.12096C26.5138 8.80645 25.6331 8.64919 24.7839 8.71209C23.9662 8.775 23.1484 8.99516 22.4251 9.37258C21.7017 9.75 21.0412 10.2847 20.5065 10.9452C19.9718 11.6056 19.563 12.3919 19.3742 13.2411C19.1855 14.0589 19.1855 14.8452 19.3113 15.6629C19.3428 15.7887 19.3113 15.8202 19.1855 15.7887C14.5307 15.1282 10.6936 13.4927 7.57989 9.93871C7.45408 9.78145 7.35973 9.78145 7.26537 9.93871C5.91295 11.9831 6.57344 15.254 8.27182 16.8895C8.49199 17.1097 8.7436 17.3298 8.99521 17.5185C8.90086 17.55 7.7686 17.4242 6.76215 16.8895C6.63634 16.7952 6.57344 16.8581 6.54199 17.0153C6.54199 17.2355 6.54199 17.4242 6.57344 17.6758C6.82505 19.7516 8.27183 21.6702 10.2218 22.3935C10.442 22.4879 10.7251 22.5823 10.9767 22.6137C10.5363 22.7081 10.0646 22.771 8.77505 22.6766C8.61779 22.6452 8.55489 22.7395 8.61779 22.8653C9.56134 25.5073 11.6371 26.2935 13.2097 26.7339C13.4299 26.7653 13.6186 26.7653 13.8388 26.8282C13.8388 26.8597 13.8073 26.8597 13.8073 26.8597C13.3041 27.646 11.5113 28.2435 10.6621 28.5266C9.15247 29.0613 7.48553 29.2815 5.8815 29.1242C5.62989 29.0927 5.56699 29.0927 5.50408 29.1242C5.44118 29.1556 5.50408 29.2185 5.56699 29.2815C5.8815 29.5016 6.22747 29.6903 6.57344 29.879C7.57989 30.4137 8.64924 30.854 9.75005 31.1685C15.4742 32.7411 21.9533 31.5774 26.2621 27.3C29.6275 23.9661 30.8226 19.3427 30.8226 14.6879C30.8226 14.4992 31.0428 14.4048 31.1686 14.3105C32.0492 13.65 32.7412 12.8637 33.4017 11.9831C33.5589 11.7944 33.5275 11.6056 33.5275 11.5427V11.5113C33.5275 11.4484 33.5589 11.4484 33.4331 11.5113Z" fill="#8C86D5"/>
<path fill-rule="evenodd" clip-rule="evenodd" d="M13.8072 31.7661C16.166 31.7661 13.9015 31.7661 13.8072 31.7661C14.1217 31.7661 13.7757 31.7661 13.8072 31.7661ZM13.8072 31.7661C13.7757 31.7661 13.3354 31.7661 13.8072 31.7661C13.8072 31.7661 13.7128 31.7661 13.8072 31.7661ZM14.7507 31.7976C14.7507 31.7347 15.2539 31.7976 14.7507 31.7976C14.7507 31.7661 14.8136 31.7976 14.7507 31.7976ZM24.6894 8.77499C24.658 8.80645 24.6265 8.80645 24.5636 8.77499C24.5951 8.77499 24.658 8.77499 24.6894 8.77499Z" fill="#8C86D5"/>
</svg>
